<?xml version="1.0" standalone="no"?>
<!DOCTYPE svg PUBLIC "-//W3C//DTD SVG 20010904//EN"
 "http://www.w3.org/TR/2001/REC-SVG-20010904/DTD/svg10.dtd">
<svg version="1.0" xmlns="http://www.w3.org/2000/svg"
 width="300.000000pt" height="249.000000pt" viewBox="0 0 300.000000 249.000000"
 preserveAspectRatio="xMidYMid meet">
<metadata>
Created by potrace 1.10, written by Peter Selinger 2001-2011
</metadata>
<g transform="translate(0.000000,249.000000) scale(0.100000,-0.100000)"
fill="#000000" stroke="none">
<path d="M400 2048 c0 -2 0 -352 0 -778 l-1 -775 1036 -3 1035 -2 0 780 0 780
-1035 0 c-569 0 -1035 -1 -1035 -2z m2007 -245 l3 -178 -98 -65 c-53 -36 -268
-183 -477 -326 -209 -143 -385 -263 -392 -267 -6 -4 -131 75 -295 187 -155
107 -374 257 -485 333 l-203 138 0 180 0 180 972 -2 973 -3 2 -177z m-1542
-531 c83 -57 244 -168 359 -247 l209 -144 141 97 c78 53 191 130 251 172 61
41 202 138 313 215 112 77 218 150 237 163 l35 22 0 -495 0 -495 -975 0 -975
0 0 495 0 494 128 -87 c70 -48 195 -133 277 -190z"/>
</g>
</svg>
