<?xml version="1.0" standalone="no"?>
<!DOCTYPE svg PUBLIC "-//W3C//DTD SVG 20010904//EN"
 "http://www.w3.org/TR/2001/REC-SVG-20010904/DTD/svg10.dtd">
<svg version="1.0" xmlns="http://www.w3.org/2000/svg"
 width="300.000000pt" height="288.000000pt" viewBox="0 0 300.000000 288.000000"
 preserveAspectRatio="xMidYMid meet">
<metadata>
Created by potrace 1.10, written by Peter Selinger 2001-2011
</metadata>
<g transform="translate(0.000000,288.000000) scale(0.100000,-0.100000)"
fill="#000000" stroke="none">
<path d="M1368 1863 l-797 -798 -90 -355 c-49 -195 -87 -357 -85 -359 2 -2 79
15 171 39 93 24 253 65 358 91 l189 48 792 792 c435 435 793 794 794 797 2 4
-529 542 -534 542 -1 0 -360 -359 -798 -797z m1084 105 l-152 -153 -215 215
c-118 118 -215 219 -215 225 0 5 66 76 147 157 l148 148 220 -220 220 -220
-153 -152z m-419 15 l217 -218 -562 -562 c-309 -309 -565 -560 -567 -557 -3 3
-4 50 -2 105 l3 99 -111 0 -111 0 0 110 0 110 -112 0 -113 0 565 565 c311 311
568 565 571 565 3 0 103 -98 222 -217z m-1365 -924 c2 -11 -8 -21 -29 -28 -43
-15 -43 -15 -22 19 18 32 46 36 51 9z m157 -169 l1 -105 109 -5 110 -5 0 -95
0 -95 -273 -68 c-151 -38 -275 -67 -277 -65 -2 2 28 125 65 273 38 149 69 271
70 273 0 1 44 1 98 0 l97 -3 0 -105z m305 -287 c0 -14 -39 -43 -57 -43 -9 0
-10 6 -4 23 5 12 12 30 15 40 5 15 9 16 26 5 11 -7 20 -18 20 -25z m-650 -193
c-22 -14 -30 -12 -30 8 0 28 12 34 29 17 14 -14 14 -17 1 -25z"/>
<path d="M1450 1605 c-360 -360 -358 -358 -309 -387 10 -7 103 79 362 335 191
190 347 349 347 354 0 12 -33 43 -46 43 -5 0 -164 -155 -354 -345z"/>
</g>
</svg>
